<svg width="208" height="24" viewBox="0 0 208 24" fill="none" xmlns="http://www.w3.org/2000/svg">
<path d="M5.11111 23H0V17.5H5.11111V23ZM5.11111 14.75H0V9.25H5.11111V14.75ZM5.11111 6.5H0V1H5.11111V6.5ZM12.7778 23H7.66667V17.5H12.7778V23ZM12.7778 14.75H7.66667V9.25H12.7778V14.75ZM12.7778 6.5H7.66667V1H12.7778V6.5ZM23 23H17.8889V17.5H23V23ZM23 14.75H17.8889V9.25H23V14.75Z" fill="#54AD36"/>
<path d="M43.9238 16.0977C44.2246 16.0977 44.5026 16.0361 44.7578 15.9131C45.013 15.79 45.2227 15.6214 45.3867 15.4072C45.5508 15.1885 45.6442 14.9401 45.667 14.6621H46.8701C46.8473 15.0996 46.6992 15.5075 46.4258 15.8857C46.1569 16.2594 45.8037 16.5625 45.3662 16.7949C44.9287 17.0228 44.4479 17.1367 43.9238 17.1367C43.3678 17.1367 42.8825 17.0387 42.4678 16.8428C42.0576 16.6468 41.7158 16.3779 41.4424 16.0361C41.1735 15.6943 40.9707 15.3024 40.834 14.8604C40.7018 14.4137 40.6357 13.9421 40.6357 13.4453V13.1582C40.6357 12.6615 40.7018 12.1921 40.834 11.75C40.9707 11.3034 41.1735 10.9092 41.4424 10.5674C41.7158 10.2256 42.0576 9.95671 42.4678 9.76074C42.8825 9.56478 43.3678 9.4668 43.9238 9.4668C44.5026 9.4668 45.0085 9.58529 45.4414 9.82227C45.8743 10.0547 46.2139 10.3737 46.46 10.7793C46.7106 11.1803 46.8473 11.6361 46.8701 12.1465H45.667C45.6442 11.8411 45.5576 11.5654 45.4072 11.3193C45.2614 11.0732 45.0609 10.8773 44.8057 10.7314C44.555 10.5811 44.2611 10.5059 43.9238 10.5059C43.5365 10.5059 43.2106 10.5833 42.9463 10.7383C42.6865 10.8887 42.4792 11.0938 42.3242 11.3535C42.1738 11.6087 42.0645 11.8936 41.9961 12.208C41.9323 12.5179 41.9004 12.8346 41.9004 13.1582V13.4453C41.9004 13.7689 41.9323 14.0879 41.9961 14.4023C42.0599 14.7168 42.167 15.0016 42.3174 15.2568C42.4723 15.512 42.6797 15.7171 42.9395 15.8721C43.2038 16.0225 43.5319 16.0977 43.9238 16.0977ZM47.957 13.3838V13.2266C47.957 12.6934 48.0345 12.1989 48.1895 11.7432C48.3444 11.2829 48.5677 10.8841 48.8594 10.5469C49.151 10.2051 49.5042 9.94076 49.9189 9.75391C50.3337 9.5625 50.7985 9.4668 51.3135 9.4668C51.833 9.4668 52.3001 9.5625 52.7148 9.75391C53.1341 9.94076 53.4896 10.2051 53.7812 10.5469C54.0775 10.8841 54.3031 11.2829 54.458 11.7432C54.613 12.1989 54.6904 12.6934 54.6904 13.2266V13.3838C54.6904 13.917 54.613 14.4115 54.458 14.8672C54.3031 15.3229 54.0775 15.7217 53.7812 16.0635C53.4896 16.4007 53.1364 16.665 52.7217 16.8564C52.3115 17.0433 51.8467 17.1367 51.3271 17.1367C50.8076 17.1367 50.3405 17.0433 49.9258 16.8564C49.5111 16.665 49.1556 16.4007 48.8594 16.0635C48.5677 15.7217 48.3444 15.3229 48.1895 14.8672C48.0345 14.4115 47.957 13.917 47.957 13.3838ZM49.2217 13.2266V13.3838C49.2217 13.7529 49.265 14.1016 49.3516 14.4297C49.4382 14.7533 49.568 15.0404 49.7412 15.291C49.9189 15.5417 50.14 15.7399 50.4043 15.8857C50.6686 16.027 50.9762 16.0977 51.3271 16.0977C51.6735 16.0977 51.9766 16.027 52.2363 15.8857C52.5007 15.7399 52.7194 15.5417 52.8926 15.291C53.0658 15.0404 53.1956 14.7533 53.2822 14.4297C53.3734 14.1016 53.4189 13.7529 53.4189 13.3838V13.2266C53.4189 12.862 53.3734 12.5179 53.2822 12.1943C53.1956 11.8662 53.0635 11.5768 52.8857 11.3262C52.7126 11.071 52.4938 10.8704 52.2295 10.7246C51.9697 10.5788 51.6644 10.5059 51.3135 10.5059C50.9671 10.5059 50.6618 10.5788 50.3975 10.7246C50.1377 10.8704 49.9189 11.071 49.7412 11.3262C49.568 11.5768 49.4382 11.8662 49.3516 12.1943C49.265 12.5179 49.2217 12.862 49.2217 13.2266ZM57.5342 11.0732V17H56.2627V9.60352H57.4658L57.5342 11.0732ZM57.2744 13.0215L56.6865 13.001C56.6911 12.4951 56.7572 12.028 56.8848 11.5996C57.0124 11.1667 57.2015 10.7907 57.4521 10.4717C57.7028 10.1527 58.015 9.90658 58.3887 9.7334C58.7624 9.55566 59.1953 9.4668 59.6875 9.4668C60.0339 9.4668 60.3529 9.51693 60.6445 9.61719C60.9362 9.71289 61.1891 9.86556 61.4033 10.0752C61.6175 10.2848 61.7839 10.5537 61.9023 10.8818C62.0208 11.21 62.0801 11.6064 62.0801 12.0713V17H60.8154V12.1328C60.8154 11.7454 60.7493 11.4355 60.6172 11.2031C60.4896 10.9707 60.3073 10.8021 60.0703 10.6973C59.8333 10.5879 59.5553 10.5332 59.2363 10.5332C58.8626 10.5332 58.5505 10.5993 58.2998 10.7314C58.0492 10.8636 57.8486 11.0459 57.6982 11.2783C57.5479 11.5107 57.4385 11.7773 57.3701 12.0781C57.3063 12.3743 57.2744 12.6888 57.2744 13.0215ZM62.0664 12.3242L61.2188 12.584C61.2233 12.1784 61.2894 11.7887 61.417 11.415C61.5492 11.0413 61.7383 10.7087 61.9844 10.417C62.235 10.1253 62.5426 9.89518 62.9072 9.72656C63.2718 9.55339 63.6888 9.4668 64.1582 9.4668C64.5547 9.4668 64.9056 9.51921 65.2109 9.62402C65.5208 9.72884 65.7806 9.89062 65.9902 10.1094C66.2044 10.3236 66.3662 10.5993 66.4756 10.9365C66.585 11.2738 66.6396 11.6748 66.6396 12.1396V17H65.3682V12.126C65.3682 11.7113 65.3021 11.39 65.1699 11.1621C65.0423 10.9297 64.86 10.7679 64.623 10.6768C64.3906 10.5811 64.1126 10.5332 63.7891 10.5332C63.5111 10.5332 63.265 10.5811 63.0508 10.6768C62.8366 10.7725 62.6566 10.9046 62.5107 11.0732C62.3649 11.2373 62.2533 11.4264 62.1758 11.6406C62.1029 11.8548 62.0664 12.0827 62.0664 12.3242ZM69.8115 11.0732V17H68.54V9.60352H69.7432L69.8115 11.0732ZM69.5518 13.0215L68.9639 13.001C68.9684 12.4951 69.0345 12.028 69.1621 11.5996C69.2897 11.1667 69.4788 10.7907 69.7295 10.4717C69.9801 10.1527 70.2923 9.90658 70.666 9.7334C71.0397 9.55566 71.4727 9.4668 71.9648 9.4668C72.3112 9.4668 72.6302 9.51693 72.9219 9.61719C73.2135 9.71289 73.4665 9.86556 73.6807 10.0752C73.8949 10.2848 74.0612 10.5537 74.1797 10.8818C74.2982 11.21 74.3574 11.6064 74.3574 12.0713V17H73.0928V12.1328C73.0928 11.7454 73.0267 11.4355 72.8945 11.2031C72.7669 10.9707 72.5846 10.8021 72.3477 10.6973C72.1107 10.5879 71.8327 10.5332 71.5137 10.5332C71.14 10.5332 70.8278 10.5993 70.5771 10.7314C70.3265 10.8636 70.126 11.0459 69.9756 11.2783C69.8252 11.5107 69.7158 11.7773 69.6475 12.0781C69.5837 12.3743 69.5518 12.6888 69.5518 13.0215ZM74.3438 12.3242L73.4961 12.584C73.5007 12.1784 73.5667 11.7887 73.6943 11.415C73.8265 11.0413 74.0156 10.7087 74.2617 10.417C74.5124 10.1253 74.82 9.89518 75.1846 9.72656C75.5492 9.55339 75.9661 9.4668 76.4355 9.4668C76.832 9.4668 77.1829 9.51921 77.4883 9.62402C77.7982 9.72884 78.0579 9.89062 78.2676 10.1094C78.4818 10.3236 78.6436 10.5993 78.7529 10.9365C78.8623 11.2738 78.917 11.6748 78.917 12.1396V17H77.6455V12.126C77.6455 11.7113 77.5794 11.39 77.4473 11.1621C77.3197 10.9297 77.1374 10.7679 76.9004 10.6768C76.668 10.5811 76.39 10.5332 76.0664 10.5332C75.7884 10.5332 75.5423 10.5811 75.3281 10.6768C75.1139 10.7725 74.9339 10.9046 74.7881 11.0732C74.6423 11.2373 74.5306 11.4264 74.4531 11.6406C74.3802 11.8548 74.3438 12.0827 74.3438 12.3242ZM83.9004 17.1367C83.3854 17.1367 82.9183 17.0501 82.499 16.877C82.0843 16.6992 81.7266 16.4508 81.4258 16.1318C81.1296 15.8128 80.9017 15.4346 80.7422 14.9971C80.5827 14.5596 80.5029 14.0811 80.5029 13.5615V13.2744C80.5029 12.6729 80.5918 12.1374 80.7695 11.668C80.9473 11.194 81.1888 10.793 81.4941 10.4648C81.7995 10.1367 82.1458 9.88835 82.5332 9.71973C82.9206 9.55111 83.3216 9.4668 83.7363 9.4668C84.265 9.4668 84.7207 9.55794 85.1035 9.74023C85.4909 9.92253 85.8076 10.1777 86.0537 10.5059C86.2998 10.8294 86.4821 11.2122 86.6006 11.6543C86.7191 12.0918 86.7783 12.5703 86.7783 13.0898V13.6572H81.2549V12.625H85.5137V12.5293C85.4954 12.2012 85.4271 11.8822 85.3086 11.5723C85.1947 11.2624 85.0124 11.0072 84.7617 10.8066C84.5111 10.6061 84.1693 10.5059 83.7363 10.5059C83.4492 10.5059 83.1849 10.5674 82.9434 10.6904C82.7018 10.8089 82.4945 10.9867 82.3213 11.2236C82.1481 11.4606 82.0137 11.75 81.918 12.0918C81.8223 12.4336 81.7744 12.8278 81.7744 13.2744V13.5615C81.7744 13.9124 81.8223 14.2428 81.918 14.5527C82.0182 14.8581 82.1618 15.127 82.3486 15.3594C82.54 15.5918 82.7702 15.7741 83.0391 15.9062C83.3125 16.0384 83.6224 16.1045 83.9688 16.1045C84.4154 16.1045 84.7936 16.0133 85.1035 15.8311C85.4134 15.6488 85.6846 15.4049 85.917 15.0996L86.6826 15.708C86.5231 15.9495 86.3203 16.1797 86.0742 16.3984C85.8281 16.6172 85.5251 16.7949 85.165 16.9316C84.8096 17.0684 84.388 17.1367 83.9004 17.1367ZM89.5195 10.7656V17H88.2549V9.60352H89.4854L89.5195 10.7656ZM91.8301 9.5625L91.8232 10.7383C91.7184 10.7155 91.6182 10.7018 91.5225 10.6973C91.4313 10.6882 91.3265 10.6836 91.208 10.6836C90.9163 10.6836 90.6589 10.7292 90.4355 10.8203C90.2122 10.9115 90.0231 11.0391 89.8682 11.2031C89.7132 11.3672 89.5902 11.5632 89.499 11.791C89.4124 12.0143 89.3555 12.2604 89.3281 12.5293L88.9727 12.7344C88.9727 12.2878 89.016 11.8685 89.1025 11.4766C89.1937 11.0846 89.3327 10.7383 89.5195 10.4375C89.7064 10.1322 89.9434 9.89518 90.2305 9.72656C90.5221 9.55339 90.8685 9.4668 91.2695 9.4668C91.3607 9.4668 91.4655 9.47819 91.584 9.50098C91.7025 9.51921 91.7845 9.53971 91.8301 9.5625ZM95.8223 16.0977C96.123 16.0977 96.401 16.0361 96.6562 15.9131C96.9115 15.79 97.1211 15.6214 97.2852 15.4072C97.4492 15.1885 97.5426 14.9401 97.5654 14.6621H98.7686C98.7458 15.0996 98.5977 15.5075 98.3242 15.8857C98.0553 16.2594 97.7021 16.5625 97.2646 16.7949C96.8271 17.0228 96.3464 17.1367 95.8223 17.1367C95.2663 17.1367 94.7809 17.0387 94.3662 16.8428C93.9561 16.6468 93.6143 16.3779 93.3408 16.0361C93.0719 15.6943 92.8691 15.3024 92.7324 14.8604C92.6003 14.4137 92.5342 13.9421 92.5342 13.4453V13.1582C92.5342 12.6615 92.6003 12.1921 92.7324 11.75C92.8691 11.3034 93.0719 10.9092 93.3408 10.5674C93.6143 10.2256 93.9561 9.95671 94.3662 9.76074C94.7809 9.56478 95.2663 9.4668 95.8223 9.4668C96.401 9.4668 96.9069 9.58529 97.3398 9.82227C97.7728 10.0547 98.1123 10.3737 98.3584 10.7793C98.609 11.1803 98.7458 11.6361 98.7686 12.1465H97.5654C97.5426 11.8411 97.4561 11.5654 97.3057 11.3193C97.1598 11.0732 96.9593 10.8773 96.7041 10.7314C96.4535 10.5811 96.1595 10.5059 95.8223 10.5059C95.4349 10.5059 95.109 10.5833 94.8447 10.7383C94.585 10.8887 94.3776 11.0938 94.2227 11.3535C94.0723 11.6087 93.9629 11.8936 93.8945 12.208C93.8307 12.5179 93.7988 12.8346 93.7988 13.1582V13.4453C93.7988 13.7689 93.8307 14.0879 93.8945 14.4023C93.9583 14.7168 94.0654 15.0016 94.2158 15.2568C94.3708 15.512 94.5781 15.7171 94.8379 15.8721C95.1022 16.0225 95.4303 16.0977 95.8223 16.0977ZM101.564 9.60352V17H100.293V9.60352H101.564ZM100.197 7.6416C100.197 7.43652 100.259 7.26335 100.382 7.12207C100.509 6.98079 100.696 6.91016 100.942 6.91016C101.184 6.91016 101.368 6.98079 101.496 7.12207C101.628 7.26335 101.694 7.43652 101.694 7.6416C101.694 7.83757 101.628 8.00618 101.496 8.14746C101.368 8.28418 101.184 8.35254 100.942 8.35254C100.696 8.35254 100.509 8.28418 100.382 8.14746C100.259 8.00618 100.197 7.83757 100.197 7.6416ZM107.956 15.7354V11.9277C107.956 11.6361 107.897 11.3831 107.778 11.1689C107.664 10.9502 107.491 10.7816 107.259 10.6631C107.026 10.5446 106.739 10.4854 106.397 10.4854C106.078 10.4854 105.798 10.54 105.557 10.6494C105.32 10.7588 105.133 10.9023 104.996 11.0801C104.864 11.2578 104.798 11.4492 104.798 11.6543H103.533C103.533 11.39 103.602 11.1279 103.738 10.8682C103.875 10.6084 104.071 10.3737 104.326 10.1641C104.586 9.94987 104.896 9.78125 105.256 9.6582C105.62 9.5306 106.026 9.4668 106.473 9.4668C107.01 9.4668 107.484 9.55794 107.895 9.74023C108.309 9.92253 108.633 10.1982 108.865 10.5674C109.102 10.932 109.221 11.39 109.221 11.9414V15.3867C109.221 15.6328 109.241 15.8949 109.282 16.1729C109.328 16.4508 109.394 16.6901 109.48 16.8906V17H108.161C108.097 16.8542 108.047 16.6605 108.011 16.4189C107.974 16.1729 107.956 15.945 107.956 15.7354ZM108.175 12.5156L108.188 13.4043H106.91C106.55 13.4043 106.229 13.4339 105.946 13.4932C105.664 13.5479 105.427 13.6322 105.235 13.7461C105.044 13.86 104.898 14.0036 104.798 14.1768C104.698 14.3454 104.647 14.5436 104.647 14.7715C104.647 15.0039 104.7 15.2158 104.805 15.4072C104.91 15.5986 105.067 15.7513 105.276 15.8652C105.491 15.9746 105.753 16.0293 106.062 16.0293C106.45 16.0293 106.792 15.9473 107.088 15.7832C107.384 15.6191 107.619 15.4186 107.792 15.1816C107.97 14.9447 108.065 14.7145 108.079 14.4912L108.619 15.0996C108.587 15.291 108.501 15.5029 108.359 15.7354C108.218 15.9678 108.029 16.1911 107.792 16.4053C107.56 16.6149 107.282 16.7904 106.958 16.9316C106.639 17.0684 106.279 17.1367 105.878 17.1367C105.377 17.1367 104.937 17.0387 104.559 16.8428C104.185 16.6468 103.893 16.3848 103.684 16.0566C103.479 15.724 103.376 15.3525 103.376 14.9424C103.376 14.5459 103.453 14.1973 103.608 13.8965C103.763 13.5911 103.987 13.3382 104.278 13.1377C104.57 12.9326 104.921 12.7777 105.331 12.6729C105.741 12.568 106.199 12.5156 106.705 12.5156H108.175ZM112.584 6.5V17H111.312V6.5H112.584ZM117.752 13.3838V13.2266C117.752 12.6934 117.829 12.1989 117.984 11.7432C118.139 11.2829 118.363 10.8841 118.654 10.5469C118.946 10.2051 119.299 9.94076 119.714 9.75391C120.129 9.5625 120.593 9.4668 121.108 9.4668C121.628 9.4668 122.095 9.5625 122.51 9.75391C122.929 9.94076 123.285 10.2051 123.576 10.5469C123.872 10.8841 124.098 11.2829 124.253 11.7432C124.408 12.1989 124.485 12.6934 124.485 13.2266V13.3838C124.485 13.917 124.408 14.4115 124.253 14.8672C124.098 15.3229 123.872 15.7217 123.576 16.0635C123.285 16.4007 122.931 16.665 122.517 16.8564C122.106 17.0433 121.642 17.1367 121.122 17.1367C120.603 17.1367 120.135 17.0433 119.721 16.8564C119.306 16.665 118.951 16.4007 118.654 16.0635C118.363 15.7217 118.139 15.3229 117.984 14.8672C117.829 14.4115 117.752 13.917 117.752 13.3838ZM119.017 13.2266V13.3838C119.017 13.7529 119.06 14.1016 119.146 14.4297C119.233 14.7533 119.363 15.0404 119.536 15.291C119.714 15.5417 119.935 15.7399 120.199 15.8857C120.464 16.027 120.771 16.0977 121.122 16.0977C121.468 16.0977 121.771 16.027 122.031 15.8857C122.296 15.7399 122.514 15.5417 122.688 15.291C122.861 15.0404 122.991 14.7533 123.077 14.4297C123.168 14.1016 123.214 13.7529 123.214 13.3838V13.2266C123.214 12.862 123.168 12.5179 123.077 12.1943C122.991 11.8662 122.858 11.5768 122.681 11.3262C122.507 11.071 122.289 10.8704 122.024 10.7246C121.765 10.5788 121.459 10.5059 121.108 10.5059C120.762 10.5059 120.457 10.5788 120.192 10.7246C119.933 10.8704 119.714 11.071 119.536 11.3262C119.363 11.5768 119.233 11.8662 119.146 12.1943C119.06 12.5179 119.017 12.862 119.017 13.2266ZM127.958 17H126.693V8.82422C126.693 8.29102 126.789 7.84212 126.98 7.47754C127.176 7.1084 127.457 6.8304 127.821 6.64355C128.186 6.45215 128.619 6.35645 129.12 6.35645C129.266 6.35645 129.412 6.36556 129.558 6.38379C129.708 6.40202 129.854 6.42936 129.995 6.46582L129.927 7.49805C129.831 7.47526 129.722 7.45931 129.599 7.4502C129.48 7.44108 129.362 7.43652 129.243 7.43652C128.974 7.43652 128.742 7.49121 128.546 7.60059C128.354 7.7054 128.209 7.86035 128.108 8.06543C128.008 8.27051 127.958 8.52344 127.958 8.82422V17ZM129.599 9.60352V10.5742H125.524V9.60352H129.599ZM131.957 17H130.692V8.96094C130.692 8.40039 130.799 7.92643 131.014 7.53906C131.232 7.15169 131.545 6.85775 131.95 6.65723C132.356 6.45671 132.837 6.35645 133.393 6.35645C133.725 6.35645 134.049 6.39746 134.363 6.47949C134.678 6.55697 135.001 6.65495 135.334 6.77344L135.115 7.83984C134.91 7.75781 134.669 7.68034 134.391 7.60742C134.113 7.52995 133.812 7.49121 133.488 7.49121C132.946 7.49121 132.554 7.61426 132.312 7.86035C132.076 8.10189 131.957 8.46875 131.957 8.96094V17ZM133.468 9.60352V10.5742H129.523V9.60352H133.468ZM135.956 9.60352V17H134.691V9.60352H135.956ZM140.98 16.0977C141.281 16.0977 141.559 16.0361 141.814 15.9131C142.07 15.79 142.279 15.6214 142.443 15.4072C142.607 15.1885 142.701 14.9401 142.724 14.6621H143.927C143.904 15.0996 143.756 15.5075 143.482 15.8857C143.214 16.2594 142.86 16.5625 142.423 16.7949C141.985 17.0228 141.505 17.1367 140.98 17.1367C140.424 17.1367 139.939 17.0387 139.524 16.8428C139.114 16.6468 138.772 16.3779 138.499 16.0361C138.23 15.6943 138.027 15.3024 137.891 14.8604C137.758 14.4137 137.692 13.9421 137.692 13.4453V13.1582C137.692 12.6615 137.758 12.1921 137.891 11.75C138.027 11.3034 138.23 10.9092 138.499 10.5674C138.772 10.2256 139.114 9.95671 139.524 9.76074C139.939 9.56478 140.424 9.4668 140.98 9.4668C141.559 9.4668 142.065 9.58529 142.498 9.82227C142.931 10.0547 143.271 10.3737 143.517 10.7793C143.767 11.1803 143.904 11.6361 143.927 12.1465H142.724C142.701 11.8411 142.614 11.5654 142.464 11.3193C142.318 11.0732 142.118 10.8773 141.862 10.7314C141.612 10.5811 141.318 10.5059 140.98 10.5059C140.593 10.5059 140.267 10.5833 140.003 10.7383C139.743 10.8887 139.536 11.0938 139.381 11.3535C139.23 11.6087 139.121 11.8936 139.053 12.208C138.989 12.5179 138.957 12.8346 138.957 13.1582V13.4453C138.957 13.7689 138.989 14.0879 139.053 14.4023C139.117 14.7168 139.224 15.0016 139.374 15.2568C139.529 15.512 139.736 15.7171 139.996 15.8721C140.26 16.0225 140.589 16.0977 140.98 16.0977ZM148.418 17.1367C147.903 17.1367 147.436 17.0501 147.017 16.877C146.602 16.6992 146.244 16.4508 145.943 16.1318C145.647 15.8128 145.419 15.4346 145.26 14.9971C145.1 14.5596 145.021 14.0811 145.021 13.5615V13.2744C145.021 12.6729 145.109 12.1374 145.287 11.668C145.465 11.194 145.706 10.793 146.012 10.4648C146.317 10.1367 146.663 9.88835 147.051 9.71973C147.438 9.55111 147.839 9.4668 148.254 9.4668C148.783 9.4668 149.238 9.55794 149.621 9.74023C150.008 9.92253 150.325 10.1777 150.571 10.5059C150.817 10.8294 151 11.2122 151.118 11.6543C151.237 12.0918 151.296 12.5703 151.296 13.0898V13.6572H145.772V12.625H150.031V12.5293C150.013 12.2012 149.945 11.8822 149.826 11.5723C149.712 11.2624 149.53 11.0072 149.279 10.8066C149.029 10.6061 148.687 10.5059 148.254 10.5059C147.967 10.5059 147.702 10.5674 147.461 10.6904C147.219 10.8089 147.012 10.9867 146.839 11.2236C146.666 11.4606 146.531 11.75 146.436 12.0918C146.34 12.4336 146.292 12.8278 146.292 13.2744V13.5615C146.292 13.9124 146.34 14.2428 146.436 14.5527C146.536 14.8581 146.679 15.127 146.866 15.3594C147.058 15.5918 147.288 15.7741 147.557 15.9062C147.83 16.0384 148.14 16.1045 148.486 16.1045C148.933 16.1045 149.311 16.0133 149.621 15.8311C149.931 15.6488 150.202 15.4049 150.435 15.0996L151.2 15.708C151.041 15.9495 150.838 16.1797 150.592 16.3984C150.346 16.6172 150.043 16.7949 149.683 16.9316C149.327 17.0684 148.906 17.1367 148.418 17.1367ZM159.205 16.0977C159.506 16.0977 159.784 16.0361 160.039 15.9131C160.294 15.79 160.504 15.6214 160.668 15.4072C160.832 15.1885 160.925 14.9401 160.948 14.6621H162.151C162.129 15.0996 161.98 15.5075 161.707 15.8857C161.438 16.2594 161.085 16.5625 160.647 16.7949C160.21 17.0228 159.729 17.1367 159.205 17.1367C158.649 17.1367 158.164 17.0387 157.749 16.8428C157.339 16.6468 156.997 16.3779 156.724 16.0361C156.455 15.6943 156.252 15.3024 156.115 14.8604C155.983 14.4137 155.917 13.9421 155.917 13.4453V13.1582C155.917 12.6615 155.983 12.1921 156.115 11.75C156.252 11.3034 156.455 10.9092 156.724 10.5674C156.997 10.2256 157.339 9.95671 157.749 9.76074C158.164 9.56478 158.649 9.4668 159.205 9.4668C159.784 9.4668 160.29 9.58529 160.723 9.82227C161.156 10.0547 161.495 10.3737 161.741 10.7793C161.992 11.1803 162.129 11.6361 162.151 12.1465H160.948C160.925 11.8411 160.839 11.5654 160.688 11.3193C160.543 11.0732 160.342 10.8773 160.087 10.7314C159.836 10.5811 159.542 10.5059 159.205 10.5059C158.818 10.5059 158.492 10.5833 158.228 10.7383C157.968 10.8887 157.76 11.0938 157.605 11.3535C157.455 11.6087 157.346 11.8936 157.277 12.208C157.214 12.5179 157.182 12.8346 157.182 13.1582V13.4453C157.182 13.7689 157.214 14.0879 157.277 14.4023C157.341 14.7168 157.448 15.0016 157.599 15.2568C157.754 15.512 157.961 15.7171 158.221 15.8721C158.485 16.0225 158.813 16.0977 159.205 16.0977ZM164.947 6.5V17H163.676V6.5H164.947ZM170.047 17.1367C169.532 17.1367 169.065 17.0501 168.646 16.877C168.231 16.6992 167.873 16.4508 167.572 16.1318C167.276 15.8128 167.048 15.4346 166.889 14.9971C166.729 14.5596 166.649 14.0811 166.649 13.5615V13.2744C166.649 12.6729 166.738 12.1374 166.916 11.668C167.094 11.194 167.335 10.793 167.641 10.4648C167.946 10.1367 168.292 9.88835 168.68 9.71973C169.067 9.55111 169.468 9.4668 169.883 9.4668C170.411 9.4668 170.867 9.55794 171.25 9.74023C171.637 9.92253 171.954 10.1777 172.2 10.5059C172.446 10.8294 172.629 11.2122 172.747 11.6543C172.866 12.0918 172.925 12.5703 172.925 13.0898V13.6572H167.401V12.625H171.66V12.5293C171.642 12.2012 171.574 11.8822 171.455 11.5723C171.341 11.2624 171.159 11.0072 170.908 10.8066C170.658 10.6061 170.316 10.5059 169.883 10.5059C169.596 10.5059 169.331 10.5674 169.09 10.6904C168.848 10.8089 168.641 10.9867 168.468 11.2236C168.295 11.4606 168.16 11.75 168.064 12.0918C167.969 12.4336 167.921 12.8278 167.921 13.2744V13.5615C167.921 13.9124 167.969 14.2428 168.064 14.5527C168.165 14.8581 168.308 15.127 168.495 15.3594C168.687 15.5918 168.917 15.7741 169.186 15.9062C169.459 16.0384 169.769 16.1045 170.115 16.1045C170.562 16.1045 170.94 16.0133 171.25 15.8311C171.56 15.6488 171.831 15.4049 172.063 15.0996L172.829 15.708C172.67 15.9495 172.467 16.1797 172.221 16.3984C171.975 16.6172 171.672 16.7949 171.312 16.9316C170.956 17.0684 170.535 17.1367 170.047 17.1367ZM178.763 15.7354V11.9277C178.763 11.6361 178.703 11.3831 178.585 11.1689C178.471 10.9502 178.298 10.7816 178.065 10.6631C177.833 10.5446 177.546 10.4854 177.204 10.4854C176.885 10.4854 176.605 10.54 176.363 10.6494C176.126 10.7588 175.939 10.9023 175.803 11.0801C175.671 11.2578 175.604 11.4492 175.604 11.6543H174.34C174.34 11.39 174.408 11.1279 174.545 10.8682C174.682 10.6084 174.878 10.3737 175.133 10.1641C175.393 9.94987 175.702 9.78125 176.062 9.6582C176.427 9.5306 176.833 9.4668 177.279 9.4668C177.817 9.4668 178.291 9.55794 178.701 9.74023C179.116 9.92253 179.439 10.1982 179.672 10.5674C179.909 10.932 180.027 11.39 180.027 11.9414V15.3867C180.027 15.6328 180.048 15.8949 180.089 16.1729C180.134 16.4508 180.201 16.6901 180.287 16.8906V17H178.968C178.904 16.8542 178.854 16.6605 178.817 16.4189C178.781 16.1729 178.763 15.945 178.763 15.7354ZM178.981 12.5156L178.995 13.4043H177.717C177.357 13.4043 177.035 13.4339 176.753 13.4932C176.47 13.5479 176.233 13.6322 176.042 13.7461C175.851 13.86 175.705 14.0036 175.604 14.1768C175.504 14.3454 175.454 14.5436 175.454 14.7715C175.454 15.0039 175.507 15.2158 175.611 15.4072C175.716 15.5986 175.873 15.7513 176.083 15.8652C176.297 15.9746 176.559 16.0293 176.869 16.0293C177.257 16.0293 177.598 15.9473 177.895 15.7832C178.191 15.6191 178.425 15.4186 178.599 15.1816C178.776 14.9447 178.872 14.7145 178.886 14.4912L179.426 15.0996C179.394 15.291 179.307 15.5029 179.166 15.7354C179.025 15.9678 178.836 16.1911 178.599 16.4053C178.366 16.6149 178.088 16.7904 177.765 16.9316C177.446 17.0684 177.086 17.1367 176.685 17.1367C176.183 17.1367 175.743 17.0387 175.365 16.8428C174.992 16.6468 174.7 16.3848 174.49 16.0566C174.285 15.724 174.183 15.3525 174.183 14.9424C174.183 14.5459 174.26 14.1973 174.415 13.8965C174.57 13.5911 174.793 13.3382 175.085 13.1377C175.377 12.9326 175.728 12.7777 176.138 12.6729C176.548 12.568 177.006 12.5156 177.512 12.5156H178.981ZM183.281 11.1826V17H182.017V9.60352H183.213L183.281 11.1826ZM182.98 13.0215L182.454 13.001C182.459 12.4951 182.534 12.028 182.68 11.5996C182.826 11.1667 183.031 10.7907 183.295 10.4717C183.559 10.1527 183.874 9.90658 184.238 9.7334C184.607 9.55566 185.015 9.4668 185.462 9.4668C185.826 9.4668 186.155 9.51693 186.446 9.61719C186.738 9.71289 186.986 9.86784 187.191 10.082C187.401 10.2962 187.561 10.5742 187.67 10.916C187.779 11.2533 187.834 11.6657 187.834 12.1533V17H186.562V12.1396C186.562 11.7523 186.506 11.4424 186.392 11.21C186.278 10.973 186.111 10.8021 185.893 10.6973C185.674 10.5879 185.405 10.5332 185.086 10.5332C184.771 10.5332 184.484 10.5993 184.225 10.7314C183.969 10.8636 183.748 11.0459 183.562 11.2783C183.379 11.5107 183.236 11.7773 183.131 12.0781C183.031 12.3743 182.98 12.6888 182.98 13.0215ZM191.129 9.60352V17H189.857V9.60352H191.129ZM189.762 7.6416C189.762 7.43652 189.823 7.26335 189.946 7.12207C190.074 6.98079 190.261 6.91016 190.507 6.91016C190.748 6.91016 190.933 6.98079 191.061 7.12207C191.193 7.26335 191.259 7.43652 191.259 7.6416C191.259 7.83757 191.193 8.00618 191.061 8.14746C190.933 8.28418 190.748 8.35254 190.507 8.35254C190.261 8.35254 190.074 8.28418 189.946 8.14746C189.823 8.00618 189.762 7.83757 189.762 7.6416ZM194.424 11.1826V17H193.159V9.60352H194.355L194.424 11.1826ZM194.123 13.0215L193.597 13.001C193.601 12.4951 193.676 12.028 193.822 11.5996C193.968 11.1667 194.173 10.7907 194.438 10.4717C194.702 10.1527 195.016 9.90658 195.381 9.7334C195.75 9.55566 196.158 9.4668 196.604 9.4668C196.969 9.4668 197.297 9.51693 197.589 9.61719C197.881 9.71289 198.129 9.86784 198.334 10.082C198.544 10.2962 198.703 10.5742 198.812 10.916C198.922 11.2533 198.977 11.6657 198.977 12.1533V17H197.705V12.1396C197.705 11.7523 197.648 11.4424 197.534 11.21C197.42 10.973 197.254 10.8021 197.035 10.6973C196.816 10.5879 196.548 10.5332 196.229 10.5332C195.914 10.5332 195.627 10.5993 195.367 10.7314C195.112 10.8636 194.891 11.0459 194.704 11.2783C194.522 11.5107 194.378 11.7773 194.273 12.0781C194.173 12.3743 194.123 12.6888 194.123 13.0215ZM205.689 9.60352H206.838V16.8428C206.838 17.4945 206.706 18.0505 206.441 18.5107C206.177 18.971 205.808 19.3197 205.334 19.5566C204.865 19.7982 204.322 19.9189 203.707 19.9189C203.452 19.9189 203.151 19.8779 202.805 19.7959C202.463 19.7184 202.126 19.584 201.793 19.3926C201.465 19.2057 201.189 18.9528 200.966 18.6338L201.629 17.8818C201.939 18.2555 202.262 18.5153 202.6 18.6611C202.941 18.807 203.279 18.8799 203.611 18.8799C204.012 18.8799 204.359 18.8047 204.65 18.6543C204.942 18.5039 205.168 18.2806 205.327 17.9844C205.491 17.6927 205.573 17.3327 205.573 16.9043V11.2305L205.689 9.60352ZM200.597 13.3838V13.2402C200.597 12.6751 200.663 12.1624 200.795 11.7021C200.932 11.2373 201.125 10.8385 201.376 10.5059C201.631 10.1732 201.939 9.91797 202.299 9.74023C202.659 9.55794 203.064 9.4668 203.516 9.4668C203.98 9.4668 204.386 9.54883 204.732 9.71289C205.083 9.8724 205.38 10.1071 205.621 10.417C205.867 10.7223 206.061 11.0915 206.202 11.5244C206.343 11.9574 206.441 12.4473 206.496 12.9941V13.623C206.446 14.1654 206.348 14.653 206.202 15.0859C206.061 15.5189 205.867 15.888 205.621 16.1934C205.38 16.4987 205.083 16.7334 204.732 16.8975C204.382 17.057 203.971 17.1367 203.502 17.1367C203.06 17.1367 202.659 17.0433 202.299 16.8564C201.943 16.6696 201.638 16.4076 201.383 16.0703C201.128 15.7331 200.932 15.3366 200.795 14.8809C200.663 14.4206 200.597 13.9215 200.597 13.3838ZM201.861 13.2402V13.3838C201.861 13.7529 201.898 14.0993 201.971 14.4229C202.048 14.7464 202.164 15.0312 202.319 15.2773C202.479 15.5234 202.682 15.7171 202.928 15.8584C203.174 15.9951 203.468 16.0635 203.81 16.0635C204.229 16.0635 204.575 15.9746 204.849 15.7969C205.122 15.6191 205.339 15.3844 205.498 15.0928C205.662 14.8011 205.79 14.4844 205.881 14.1426V12.4951C205.831 12.2445 205.753 12.0029 205.648 11.7705C205.548 11.5335 205.416 11.3239 205.252 11.1416C205.092 10.9548 204.894 10.8066 204.657 10.6973C204.42 10.5879 204.142 10.5332 203.823 10.5332C203.477 10.5332 203.178 10.6061 202.928 10.752C202.682 10.8932 202.479 11.0892 202.319 11.3398C202.164 11.5859 202.048 11.873 201.971 12.2012C201.898 12.5247 201.861 12.8711 201.861 13.2402Z" fill="black"/>
</svg>
